# xmcd
#
# Track frame offsets: 
#        150
#        15802
#        35919
#        53658
#        65186
#        80878
#        88551
#        104837
#        117866
#        143351
#        157072
#        170924
#        185917
#
# Disc length: 2688 seconds
#
# Revision: 0
# Processed by: cddbd v1.5.2PL0 Copyright (c) Steve Scherf et al.
# Submitted via: ExactAudioCopy v0.99pb3
#
DISCID=bb0a7e0d
DTITLE=Markus James - Calabash Blues
DYEAR=1900
DGENRE=U.S.
TTITLE0=Come Around
TTITLE1=Need A Believer
TTITLE2=Other Side Of The World
TTITLE3=Jump Up And Fly - Mone
TTITLE4=Wakin Up At Midnight - Ebina
TTITLE5=One Drop
TTITLE6=Dream After Dream
TTITLE7=Wabissimila
TTITLE8=Nightbird
TTITLE9=Far As I Can Run - Majirica Smaba
TTITLE10=In The Shadows
TTITLE11=Sun Is Rising
TTITLE12=Way To Go
EXTD=
EXTT0=
EXTT1=
EXTT2=
EXTT3=
EXTT4=
EXTT5=
EXTT6=
EXTT7=
EXTT8=
EXTT9=
EXTT10=
EXTT11=
EXTT12=
PLAYORDER=
